<?xml version="1.0" encoding="UTF-8"?>
<svg version="1.1" xmlns="http://www.w3.org/2000/svg" width="512" height="512">
<path d="M0 0 C4.58481369 0.01139362 9.16939516 0.00461693 13.75420094 -0.00687885 C73.51979986 -0.13413733 126.30834799 7.8974866 170.56787109 51.32324219 C190.56160172 71.39840154 205.33184458 96.49512748 213.31787109 123.69824219 C213.54821045 124.47063232 213.7785498 125.24302246 214.01586914 126.03881836 C218.1203026 140.87954601 219.45741659 155.91189539 219.42529297 171.24414062 C219.43266061 172.94672695 219.44125448 174.64930832 219.45095825 176.35188293 C219.47288597 180.91158241 219.47612008 185.47109975 219.47421074 190.03084469 C219.47408983 193.86029084 219.48270134 197.68970003 219.49098825 201.51913571 C219.5101141 210.55884422 219.51314397 219.59846041 219.50634766 228.63818359 C219.49969614 237.9218729 219.5226409 247.20516602 219.55966139 256.48877501 C219.59045692 264.50633436 219.60170834 272.52376676 219.59782457 280.54138398 C219.5957694 285.30979306 219.60104608 290.07789256 219.62571716 294.84624481 C219.64814952 299.32819219 219.64597123 303.809497 219.62578964 308.29144859 C219.62240995 309.92352751 219.62733536 311.5556512 219.64177322 313.18766975 C219.78424824 330.50361241 215.40788457 345.38256439 203.38037109 358.44824219 C190.34735948 370.70128593 174.46794812 375.79405504 156.87646484 375.46777344 C145.64173136 374.86692493 136.73883213 370.48946092 127.00537109 365.26074219 C126.34537109 364.93074219 125.68537109 364.60074219 125.00537109 364.26074219 C124.68826172 365.123125 124.37115234 365.98550781 124.04443359 366.87402344 C107.64847006 409.76622639 76.5176206 443.95542257 34.75439453 463.37426758 C-1.11854041 479.38523798 -39.18473924 479.62689211 -77.7434082 479.45635986 C-80.84717254 479.44547032 -83.95089401 479.44593549 -87.05467415 479.44637489 C-101.92025187 479.44582512 -116.75880207 479.37796916 -131.60375977 478.49731445 C-154.51031764 477.15761104 -174.07501709 479.46179449 -191.99462891 495.26074219 C-192.57599609 495.82664062 -193.15736328 496.39253906 -193.75634766 496.97558594 C-198.11150706 501.14180134 -202.70350531 503.89001411 -208.05712891 506.57324219 C-208.7301001 506.910896 -209.40307129 507.2485498 -210.09643555 507.59643555 C-223.49111888 514.07339985 -240.04172986 514.64030115 -254.24462891 510.19824219 C-270.11892582 503.90477785 -282.12621827 493.18634118 -289.20947266 477.58496094 C-291.96460113 470.96676976 -293.11730112 465.37177742 -293.14179993 458.16383362 C-293.14547661 457.46046228 -293.1491533 456.75709094 -293.15294141 456.03240532 C-293.16393347 453.68085712 -293.16781465 451.32935319 -293.17163086 448.9777832 C-293.17789957 447.28862367 -293.18454673 445.59946551 -293.19154358 443.91030884 C-293.21256181 438.36176508 -293.22295321 432.81322117 -293.23291016 427.26464844 C-293.23696045 425.34681624 -293.24107745 423.42898418 -293.24526024 421.51115227 C-293.2643177 412.48654082 -293.27853994 403.4619375 -293.28687221 394.4373098 C-293.29660605 384.06862005 -293.32282172 373.70014598 -293.3633731 363.33153206 C-293.39372517 355.2903879 -293.40835955 347.2493048 -293.41165322 339.20810455 C-293.41398471 334.41972678 -293.42269142 329.63157918 -293.4481144 324.84326363 C-293.64294458 286.13548754 -293.64294458 286.13548754 -288.99462891 268.26074219 C-288.69614264 267.08217998 -288.69614264 267.08217998 -288.39162636 265.87980843 C-278.02536787 225.39116903 -251.98928451 189.10563847 -216.99462891 166.26074219 C-215.39743571 165.45509915 -213.79479866 164.65994053 -212.18212891 163.88574219 C-209.7956284 162.40058093 -209.12281407 161.65879085 -208.25244141 158.95605469 C-207.82957286 156.15918731 -207.54166173 153.36685795 -207.26806641 150.55224609 C-202.74585779 112.65452279 -186.32198628 80.34147626 -160.99462891 52.26074219 C-160.31916016 51.51179688 -159.64369141 50.76285156 -158.94775391 49.99121094 C-152.93668432 43.68472554 -145.97422477 38.43938914 -138.99462891 33.26074219 C-138.42389648 32.8350293 -137.85316406 32.40931641 -137.26513672 31.97070312 C-96.31967366 1.89072193 -48.81893499 -0.12238946 0 0 Z M-98.86962891 164.94824219 C-100.53991335 168.38160466 -100.76237394 171.57556604 -99.99462891 175.26074219 C-97.46556749 178.86273875 -95.75675403 180.02517624 -91.55712891 181.32324219 C-87.11392957 181.24529132 -85.33317419 180.13344395 -81.99462891 177.26074219 C-79.88605438 174.60210474 -79.99439276 173.27373012 -80.05712891 169.82324219 C-81.18142648 165.55091142 -82.5222064 163.94397776 -85.99462891 161.26074219 C-91.15147086 159.14511472 -94.92713577 161.39999837 -98.86962891 164.94824219 Z M29.13037109 164.94824219 C27.46008665 168.38160466 27.23762606 171.57556604 28.00537109 175.26074219 C30.53443251 178.86273875 32.24324597 180.02517624 36.44287109 181.32324219 C40.88607043 181.24529132 42.66682581 180.13344395 46.00537109 177.26074219 C48.11394562 174.60210474 48.00560724 173.27373012 47.94287109 169.82324219 C46.81857352 165.55091142 45.4777936 163.94397776 42.00537109 161.26074219 C36.84852914 159.14511472 33.07286423 161.39999837 29.13037109 164.94824219 Z M-214.34716797 220.57519531 C-245.48669941 252.43460922 -250.49670464 291.4306488 -250.39760542 333.79389906 C-250.38991003 338.12185166 -250.39707964 342.44978695 -250.40176392 346.77774048 C-250.40718496 354.02438856 -250.40011818 361.27094415 -250.38574219 368.51757812 C-250.36933605 376.88400293 -250.37477621 385.25020925 -250.3912214 393.616629 C-250.40483807 400.83491965 -250.40675765 408.05314463 -250.3989054 415.27144396 C-250.39424094 419.56830155 -250.3935719 423.8650563 -250.40351486 428.1619072 C-250.41218798 432.18902164 -250.40615663 436.21585317 -250.38883209 440.24293709 C-250.38487279 441.71753152 -250.38599178 443.19214985 -250.39262009 444.6667347 C-250.40084466 446.68230451 -250.38869185 448.69792652 -250.37557983 450.71347046 C-250.37444876 451.83973532 -250.37331768 452.96600018 -250.37215233 454.12639427 C-249.76382815 459.17694083 -247.8041687 462.39337812 -244.36962891 466.07324219 C-240.56473218 468.97400504 -236.71254515 469.63235888 -231.99462891 469.26074219 C-226.51061775 467.8897394 -222.84036426 464.29883154 -218.80712891 460.51074219 C-198.18179843 441.19045325 -169.89448303 433.50801967 -142.16842651 434.18815613 C-138.79888707 434.30066963 -135.43664832 434.51845338 -132.07275391 434.73730469 C-123.23802496 435.2823044 -114.40488937 435.58801574 -105.55712891 435.82324219 C-104.78894836 435.84408875 -104.02076782 435.8649353 -103.22930908 435.88641357 C-86.61396667 436.33615459 -86.61396667 436.33615459 -69.99462891 436.26074219 C-68.81223633 436.23753906 -67.62984375 436.21433594 -66.41162109 436.19042969 C-19.84395023 435.22677781 20.87894904 430.28149508 55.53955078 395.79248047 C70.10695572 380.56997904 80.53462151 361.55801602 86.00537109 341.26074219 C82.85216225 340.20967257 80.62817181 340.13156396 77.31787109 340.12792969 C76.1594873 340.12599609 75.00110352 340.1240625 73.80761719 340.12207031 C72.55287598 340.12658203 71.29813477 340.13109375 70.00537109 340.13574219 C68.6952002 340.13767578 67.3850293 340.13960937 66.03515625 340.14160156 C57.80745612 340.16920754 49.60006444 340.39273463 41.38037109 340.76074219 C13.34692064 341.97626172 -14.98347938 341.9374828 -42.99462891 340.26074219 C-43.91743652 340.20692383 -44.84024414 340.15310547 -45.79101562 340.09765625 C-85.76131663 337.5677999 -123.49728821 322.59247818 -152.99462891 295.26074219 C-153.56133301 294.73786621 -154.12803711 294.21499023 -154.71191406 293.67626953 C-178.69178691 271.28315419 -194.26257003 242.74211235 -202.99462891 211.26074219 C-206.3969431 211.26074219 -211.93705731 218.23059952 -214.34716797 220.57519531 Z " fill="#212529" transform="translate(292.99462890625,-0.2607421875)"/>
<path d="M0 0 C3.53467737 0.01356866 7.06922938 0.00822482 10.60392094 0.00287151 C14.08313405 -0.00050231 17.56227263 0.00622028 21.04147148 0.01600075 C22.66495815 0.01977179 24.28845319 0.02103589 25.91194344 0.0194149 C66.18432613 0.01266515 102.44193014 10.32130035 131.74847412 39.0725708 C147.76851977 55.31155926 159.6235265 75.993927 164.56097412 98.3225708 C164.80525965 99.35408201 165.04954517 100.38559322 165.30123329 101.44836235 C167.42956127 111.06053028 167.99135907 120.27207462 167.94915771 130.09259033 C167.95323485 131.71228893 167.95858306 133.33198475 167.96508789 134.95167542 C167.97862081 139.30022878 167.97352463 143.64856574 167.96395063 147.99712229 C167.95629358 152.56580546 167.96341507 157.13447153 167.96810913 161.70315552 C167.97354369 169.36050715 167.96643002 177.01777152 167.9520874 184.67510986 C167.93570686 193.52257383 167.94109767 202.36983094 167.95756662 211.21729004 C167.97117772 218.83545995 167.97310475 226.45356762 167.96525061 234.07174575 C167.96057952 238.61288911 167.95993493 243.15393511 167.96986008 247.69507217 C167.97852405 251.95521199 167.97251845 256.21508405 167.95517731 260.47519493 C167.95121192 262.03728351 167.95234743 263.59939464 167.9589653 265.16147423 C167.96716764 267.2940192 167.95687692 269.42570664 167.94192505 271.55819702 C167.94079397 272.75087252 167.9396629 273.94354801 167.93849754 275.17236519 C167.3643109 279.96360694 165.24456916 283.12168264 161.49847412 286.0725708 C157.16624404 289.39087469 153.95856666 289.99356951 148.56097412 289.3225708 C143.85222248 287.3169914 140.72526947 284.61260251 136.99847412 281.1350708 C126.53962691 271.5280754 114.64930349 265.51815491 101.56097412 260.3225708 C100.7643335 259.99514893 99.96769287 259.66772705 99.14691162 259.3303833 C81.76235649 252.81956535 62.7441001 253.49578084 44.57513428 255.04522705 C13.51594131 257.68421308 -18.34255983 257.39121983 -49.43902588 255.3225708 C-50.29335205 255.27406982 -51.14767822 255.22556885 -52.02789307 255.17559814 C-69.19519384 254.15643121 -86.12813519 250.37031569 -101.43902588 242.3225708 C-102.65084918 241.71886989 -103.86312352 241.11607386 -105.07574463 240.51397705 C-112.93332833 236.54433718 -119.81938459 232.18947696 -126.43902588 226.3225708 C-127.29238525 225.57749268 -128.14574463 224.83241455 -129.02496338 224.0647583 C-131.52678697 221.84842809 -133.98777485 219.59456368 -136.43902588 217.3225708 C-137.03199463 216.79534424 -137.62496338 216.26811768 -138.23590088 215.72491455 C-157.23633923 198.03641123 -167.7933618 172.45849708 -172.07940674 147.40582275 C-172.36518442 145.75032994 -172.68859567 144.10134263 -173.02496338 142.4553833 C-177.352819 109.71066438 -167.81815881 76.91904012 -148.12652588 50.73272705 C-133.03978138 31.30299692 -113.50382534 16.9498622 -90.43902588 8.3225708 C-88.74326416 7.64387939 -88.74326416 7.64387939 -87.01324463 6.95147705 C-77.50973781 3.6257431 -67.87637786 2.54058104 -57.89215088 1.6975708 C-57.14120714 1.63292444 -56.3902634 1.56827808 -55.6165638 1.50167274 C-37.08727805 -0.05539497 -18.58195719 -0.09698716 0 0 Z M-107.31402588 122.0100708 C-108.98431032 125.44343327 -109.20677091 128.63739465 -108.43902588 132.3225708 C-105.90996446 135.92456736 -104.20115101 137.08700485 -100.00152588 138.3850708 C-95.55832654 138.30711994 -93.77757117 137.19527256 -90.43902588 134.3225708 C-88.33045135 131.66393335 -88.43878973 130.33555873 -88.50152588 126.8850708 C-89.62582345 122.61274004 -90.96660337 121.00580638 -94.43902588 118.3225708 C-99.59586783 116.20694333 -103.37153275 118.46182698 -107.31402588 122.0100708 Z M20.68597412 122.0100708 C19.01568968 125.44343327 18.79322909 128.63739465 19.56097412 132.3225708 C22.09003554 135.92456736 23.79884899 137.08700485 27.99847412 138.3850708 C32.44167346 138.30711994 34.22242883 137.19527256 37.56097412 134.3225708 C39.66954865 131.66393335 39.56121027 130.33555873 39.49847412 126.8850708 C38.37417655 122.61274004 37.03339663 121.00580638 33.56097412 118.3225708 C28.40413217 116.20694333 24.62846725 118.46182698 20.68597412 122.0100708 Z " fill="#5DF5C9" transform="translate(301.43902587890625,42.67742919921875)"/>
<path d="M0 0 C10.28890522 8.67738995 17.57984908 20.54282333 19.34375 34 C20.2178602 49.39504299 17.45503282 63.80636689 7.27734375 75.91015625 C-3.28261733 87.32344751 -16.02641257 94.30568957 -31.640625 95.1640625 C-46.86826237 95.5647898 -58.97304766 91.19186798 -70.46875 81.1875 C-81.50943 70.57025517 -87.83336298 56.6236063 -88.28125 41.1875 C-87.59501784 26.57387414 -81.41726927 12.05642872 -70.65625 2 C-49.29286865 -15.52236244 -22.44289235 -16.89817777 0 0 Z M-42.53125 35.6875 C-44.20153445 39.12086247 -44.42399503 42.31482385 -43.65625 46 C-41.12718858 49.60199656 -39.41837513 50.76443405 -35.21875 52.0625 C-30.77555066 51.98454913 -28.99479529 50.87270176 -25.65625 48 C-23.54767547 45.34136255 -23.65601386 44.01298793 -23.71875 40.5625 C-24.84304757 36.29016924 -26.18382749 34.68323558 -29.65625 32 C-34.81309195 29.88437253 -38.58875687 32.13925618 -42.53125 35.6875 Z " fill="#212629" transform="translate(236.65625,129)"/>
<path d="M0 0 C1.36511719 0.70382813 1.36511719 0.70382813 2.7578125 1.421875 C15.03445985 8.23816278 22.88967712 19.14679442 27.5 32.375 C31.55764765 47.20516352 28.78701966 61.53397692 22 75 C14.08321906 87.55629097 2.71809306 94.9040583 -11 100 C-26.1083903 102.74698006 -40.53054252 101.20919768 -53.58984375 92.7578125 C-65.3236114 84.19995927 -74.31643933 73.67592353 -77 59 C-77.37058105 55.24594408 -77.48035068 51.52108513 -77.5 47.75 C-77.50628418 46.83968018 -77.51256836 45.92936035 -77.51904297 44.99145508 C-77.27216985 31.76456871 -71.99741277 19.52189659 -62.96875 9.83984375 C-46.28819079 -5.74853599 -20.56490463 -11.06892884 0 0 Z M-32.875 41.6875 C-34.54528445 45.12086247 -34.76774503 48.31482385 -34 52 C-31.47093858 55.60199656 -29.76212513 56.76443405 -25.5625 58.0625 C-21.11930066 57.98454913 -19.33854529 56.87270176 -16 54 C-13.89142547 51.34136255 -13.99976386 50.01298793 -14.0625 46.5625 C-15.18679757 42.29016924 -16.52757749 40.68323558 -20 38 C-25.15684195 35.88437253 -28.93250687 38.13925618 -32.875 41.6875 Z " fill="#212529" transform="translate(355,123)"/>
</svg>
